<svg width="28" height="28" viewBox="0 0 28 28" fill="none" xmlns="http://www.w3.org/2000/svg">
<path d="M25.4656 15.3837L14.8887 25.97C14.5236 26.3376 14.0892 26.629 13.6105 26.8272C13.1319 27.0255 12.6186 27.1267 12.1006 27.125C11.5823 27.1266 11.0688 27.0253 10.5899 26.827C10.111 26.6288 9.67613 26.3375 9.31058 25.97L2.02808 18.6781C1.29048 17.9377 0.876343 16.9351 0.876343 15.89C0.876343 14.8449 1.29048 13.8423 2.02808 13.1019L12.605 2.51375C13.5968 1.51812 15.215 0.875 16.7262 0.875C16.9812 0.875 17.2306 0.89375 17.4687 0.93125L22.4375 1.71875C24.3181 2.01875 25.9625 3.66688 26.2587 5.5475L27.0443 10.5163C27.3425 12.3969 26.8137 14.0356 25.4656 15.3837ZM20.5625 4.625C20.1871 4.61518 19.8136 4.68061 19.464 4.81743C19.1144 4.95425 18.7957 5.15969 18.5267 5.42164C18.2577 5.68359 18.0439 5.99674 17.8979 6.34263C17.7518 6.68852 17.6765 7.06015 17.6764 7.4356C17.6763 7.81105 17.7513 8.18273 17.8971 8.52872C18.0429 8.87471 18.2565 9.188 18.5253 9.45013C18.7941 9.71225 19.1127 9.91791 19.4622 10.055C19.8118 10.192 20.1852 10.2577 20.5606 10.2481C21.2937 10.2294 21.9905 9.92515 22.5025 9.40011C23.0145 8.87507 23.3012 8.17082 23.3014 7.43748C23.3017 6.70413 23.0154 5.99969 22.5038 5.47431C21.9922 4.94893 21.2955 4.64418 20.5625 4.625Z" fill="#999999"/>
</svg>
